<mxfile host="app.diagrams.net" modified="2024-02-20T13:55:04.096Z" agent="Mozilla/5.0 (Macintosh; Intel Mac OS X 10_15_7) AppleWebKit/537.36 (KHTML, like Gecko) Chrome/121.0.0.0 Safari/537.36" etag="9mQJzMYnMSAZ1st1h-2I" version="23.0.1" type="github">
  <diagram name="Page-1" id="tpOJ9a9pUT4eBlT_nwzV">
    <mxGraphModel dx="1434" dy="814" grid="1" gridSize="10" guides="1" tooltips="1" connect="1" arrows="1" fold="1" page="1" pageScale="1" pageWidth="827" pageHeight="1169" math="0" shadow="0">
      <root>
        <mxCell id="0" />
        <mxCell id="1" parent="0" />
        <mxCell id="AS0PMVbMDKIyWdXyoXrK-1" value="API 1&lt;br&gt;(Email Notification)" style="rounded=1;whiteSpace=wrap;html=1;fillColor=#CCFFCC;" vertex="1" parent="1">
          <mxGeometry x="80" y="460" width="120" height="60" as="geometry" />
        </mxCell>
        <mxCell id="AS0PMVbMDKIyWdXyoXrK-25" style="edgeStyle=orthogonalEdgeStyle;rounded=0;orthogonalLoop=1;jettySize=auto;html=1;entryX=0.5;entryY=1;entryDx=0;entryDy=0;strokeColor=#009900;" edge="1" parent="1" source="AS0PMVbMDKIyWdXyoXrK-2" target="AS0PMVbMDKIyWdXyoXrK-4">
          <mxGeometry relative="1" as="geometry" />
        </mxCell>
        <mxCell id="AS0PMVbMDKIyWdXyoXrK-2" value="API 2&lt;span style=&quot;white-space: pre;&quot;&gt;&#x9;&lt;/span&gt;" style="rounded=1;whiteSpace=wrap;html=1;fillColor=#CCFFCC;" vertex="1" parent="1">
          <mxGeometry x="240" y="460" width="120" height="60" as="geometry" />
        </mxCell>
        <mxCell id="AS0PMVbMDKIyWdXyoXrK-23" style="edgeStyle=orthogonalEdgeStyle;rounded=0;orthogonalLoop=1;jettySize=auto;html=1;strokeColor=#FF9933;" edge="1" parent="1" source="AS0PMVbMDKIyWdXyoXrK-3">
          <mxGeometry relative="1" as="geometry">
            <mxPoint x="460" y="440" as="targetPoint" />
            <Array as="points">
              <mxPoint x="460" y="440" />
            </Array>
          </mxGeometry>
        </mxCell>
        <mxCell id="AS0PMVbMDKIyWdXyoXrK-3" value="API 3" style="rounded=1;whiteSpace=wrap;html=1;fillColor=#FFD966;" vertex="1" parent="1">
          <mxGeometry x="400" y="460" width="120" height="60" as="geometry" />
        </mxCell>
        <mxCell id="AS0PMVbMDKIyWdXyoXrK-17" style="edgeStyle=orthogonalEdgeStyle;rounded=0;orthogonalLoop=1;jettySize=auto;html=1;entryX=0.75;entryY=0;entryDx=0;entryDy=0;" edge="1" parent="1">
          <mxGeometry relative="1" as="geometry">
            <mxPoint x="139.9" y="440" as="sourcePoint" />
            <mxPoint x="139.9" y="460" as="targetPoint" />
            <Array as="points">
              <mxPoint x="139.9" y="450" />
              <mxPoint x="139.9" y="450" />
            </Array>
          </mxGeometry>
        </mxCell>
        <mxCell id="AS0PMVbMDKIyWdXyoXrK-19" style="edgeStyle=orthogonalEdgeStyle;rounded=0;orthogonalLoop=1;jettySize=auto;html=1;entryX=0.327;entryY=0.018;entryDx=0;entryDy=0;entryPerimeter=0;" edge="1" parent="1" source="AS0PMVbMDKIyWdXyoXrK-4" target="AS0PMVbMDKIyWdXyoXrK-2">
          <mxGeometry relative="1" as="geometry">
            <Array as="points">
              <mxPoint x="280" y="461" />
            </Array>
          </mxGeometry>
        </mxCell>
        <mxCell id="AS0PMVbMDKIyWdXyoXrK-4" value="Apigee" style="rounded=1;whiteSpace=wrap;html=1;" vertex="1" parent="1">
          <mxGeometry x="80" y="380" width="440" height="60" as="geometry" />
        </mxCell>
        <mxCell id="AS0PMVbMDKIyWdXyoXrK-15" style="edgeStyle=flexArrow;rounded=0;orthogonalLoop=1;jettySize=auto;html=1;entryX=0.5;entryY=0;entryDx=0;entryDy=0;" edge="1" parent="1" source="AS0PMVbMDKIyWdXyoXrK-6" target="AS0PMVbMDKIyWdXyoXrK-4">
          <mxGeometry relative="1" as="geometry" />
        </mxCell>
        <mxCell id="AS0PMVbMDKIyWdXyoXrK-20" style="edgeStyle=orthogonalEdgeStyle;rounded=0;orthogonalLoop=1;jettySize=auto;html=1;entryX=0;entryY=0.5;entryDx=0;entryDy=0;strokeColor=#FF0000;" edge="1" parent="1" source="AS0PMVbMDKIyWdXyoXrK-6" target="AS0PMVbMDKIyWdXyoXrK-10">
          <mxGeometry relative="1" as="geometry" />
        </mxCell>
        <mxCell id="AS0PMVbMDKIyWdXyoXrK-6" value="&lt;span style=&quot;margin: 0px; padding: 0.651619px 0px 0px; user-select: text; -webkit-user-drag: none; -webkit-tap-highlight-color: transparent; touch-action: pan-x pan-y; font-variant-numeric: normal; font-variant-east-asian: normal; font-variant-alternates: normal; font-variant-position: normal; letter-spacing: 0px; text-align: left; background-color: rgb(245, 245, 245); color: rgb(5, 0, 51); font-size: 7.99997pt; font-family: Montserrat, Montserrat_EmbeddedFont, Montserrat_MSFontService, sans-serif; font-kerning: none; line-height: 11px; vertical-align: -0.651619px;&quot; lang=&quot;EN-US&quot; class=&quot;TextRun SCXP29168825 BCX0&quot; data-contrast=&quot;none&quot; data-usefontface=&quot;false&quot;&gt;&lt;/span&gt;&lt;p&gt;&lt;span style=&quot;margin: 0px; padding: 0.651619px 0px 0px; user-select: text; -webkit-user-drag: none; -webkit-tap-highlight-color: transparent; touch-action: pan-x pan-y; font-variant-numeric: normal; font-variant-east-asian: normal; font-variant-alternates: normal; font-variant-position: normal; letter-spacing: 0px; text-align: left; background-color: rgb(245, 245, 245); color: rgb(5, 0, 51); font-size: 7.99997pt; font-kerning: none; line-height: 11px; vertical-align: -0.651619px;&quot; lang=&quot;EN-US&quot; class=&quot;TextRun SCXP29168825 BCX0&quot; data-contrast=&quot;none&quot; data-usefontface=&quot;false&quot;&gt;&lt;span style=&quot;margin: 0px; padding: 0px; user-select: text; -webkit-user-drag: none; -webkit-tap-highlight-color: transparent; touch-action: pan-x pan-y; vertical-align: 0.651619px; line-height: 0px; position: relative;&quot; class=&quot;NormalTextRun SCXP29168825 BCX0&quot;&gt;&lt;font face=&quot;Helvetica&quot;&gt;Supervision component&lt;/font&gt;&lt;/span&gt;&lt;/span&gt;&lt;/p&gt;" style="rounded=0;whiteSpace=wrap;html=1;" vertex="1" parent="1">
          <mxGeometry x="200" y="260" width="200" height="60" as="geometry" />
        </mxCell>
        <mxCell id="AS0PMVbMDKIyWdXyoXrK-8" value="Email&lt;br&gt;(To User)" style="shape=callout;whiteSpace=wrap;html=1;perimeter=calloutPerimeter;" vertex="1" parent="1">
          <mxGeometry x="120" y="70" width="120" height="80" as="geometry" />
        </mxCell>
        <mxCell id="AS0PMVbMDKIyWdXyoXrK-7" value="" style="shape=actor;whiteSpace=wrap;html=1;" vertex="1" parent="1">
          <mxGeometry x="120" y="80" width="30" height="40" as="geometry" />
        </mxCell>
        <mxCell id="AS0PMVbMDKIyWdXyoXrK-9" value="api_status_tag&lt;br&gt;(API Portal)" style="shape=callout;whiteSpace=wrap;html=1;perimeter=calloutPerimeter;" vertex="1" parent="1">
          <mxGeometry x="360" y="70" width="120" height="80" as="geometry" />
        </mxCell>
        <mxCell id="AS0PMVbMDKIyWdXyoXrK-10" value="&lt;font style=&quot;font-size: 10px;&quot;&gt;Supervision component&lt;/font&gt;" style="rounded=0;whiteSpace=wrap;html=1;" vertex="1" parent="1">
          <mxGeometry x="440" y="260" width="120" height="60" as="geometry" />
        </mxCell>
        <mxCell id="AS0PMVbMDKIyWdXyoXrK-12" style="edgeStyle=orthogonalEdgeStyle;rounded=0;orthogonalLoop=1;jettySize=auto;html=1;entryX=0;entryY=0;entryDx=0;entryDy=25;entryPerimeter=0;strokeColor=#FF0000;" edge="1" parent="1" source="AS0PMVbMDKIyWdXyoXrK-1" target="AS0PMVbMDKIyWdXyoXrK-8">
          <mxGeometry relative="1" as="geometry">
            <Array as="points">
              <mxPoint x="40" y="490" />
              <mxPoint x="40" y="95" />
            </Array>
          </mxGeometry>
        </mxCell>
        <mxCell id="AS0PMVbMDKIyWdXyoXrK-13" style="edgeStyle=orthogonalEdgeStyle;rounded=0;orthogonalLoop=1;jettySize=auto;html=1;entryX=0.089;entryY=-0.008;entryDx=0;entryDy=0;entryPerimeter=0;strokeColor=#FF0000;" edge="1" parent="1" source="AS0PMVbMDKIyWdXyoXrK-6" target="AS0PMVbMDKIyWdXyoXrK-4">
          <mxGeometry relative="1" as="geometry">
            <Array as="points">
              <mxPoint x="120" y="290" />
              <mxPoint x="120" y="350" />
            </Array>
          </mxGeometry>
        </mxCell>
        <mxCell id="AS0PMVbMDKIyWdXyoXrK-14" style="edgeStyle=orthogonalEdgeStyle;rounded=0;orthogonalLoop=1;jettySize=auto;html=1;entryX=0.333;entryY=0;entryDx=0;entryDy=0;entryPerimeter=0;strokeColor=#FF0000;" edge="1" parent="1" source="AS0PMVbMDKIyWdXyoXrK-4" target="AS0PMVbMDKIyWdXyoXrK-1">
          <mxGeometry relative="1" as="geometry">
            <Array as="points">
              <mxPoint x="120" y="440" />
              <mxPoint x="120" y="440" />
            </Array>
          </mxGeometry>
        </mxCell>
        <mxCell id="AS0PMVbMDKIyWdXyoXrK-18" style="edgeStyle=orthogonalEdgeStyle;rounded=0;orthogonalLoop=1;jettySize=auto;html=1;exitX=0.817;exitY=1.009;exitDx=0;exitDy=0;exitPerimeter=0;" edge="1" parent="1" source="AS0PMVbMDKIyWdXyoXrK-4">
          <mxGeometry relative="1" as="geometry">
            <mxPoint x="399.9999999999999" y="438" as="sourcePoint" />
            <mxPoint x="440" y="460" as="targetPoint" />
            <Array as="points">
              <mxPoint x="440" y="441" />
            </Array>
          </mxGeometry>
        </mxCell>
        <mxCell id="AS0PMVbMDKIyWdXyoXrK-21" style="edgeStyle=orthogonalEdgeStyle;rounded=0;orthogonalLoop=1;jettySize=auto;html=1;entryX=0;entryY=0;entryDx=120.00000000000001;entryDy=25;entryPerimeter=0;strokeColor=#FF0000;" edge="1" parent="1" source="AS0PMVbMDKIyWdXyoXrK-10" target="AS0PMVbMDKIyWdXyoXrK-9">
          <mxGeometry relative="1" as="geometry" />
        </mxCell>
        <mxCell id="AS0PMVbMDKIyWdXyoXrK-27" style="edgeStyle=orthogonalEdgeStyle;rounded=0;orthogonalLoop=1;jettySize=auto;html=1;entryX=0.178;entryY=0.991;entryDx=0;entryDy=0;entryPerimeter=0;strokeColor=#009900;" edge="1" parent="1" source="AS0PMVbMDKIyWdXyoXrK-1" target="AS0PMVbMDKIyWdXyoXrK-4">
          <mxGeometry relative="1" as="geometry">
            <Array as="points">
              <mxPoint x="158" y="440" />
              <mxPoint x="158" y="440" />
            </Array>
          </mxGeometry>
        </mxCell>
        <mxCell id="AS0PMVbMDKIyWdXyoXrK-28" value="" style="shape=flexArrow;endArrow=classic;html=1;rounded=0;endWidth=12.592592592592592;endSize=6.322222222222222;width=8.148148148148147;fillColor=#000000;" edge="1" parent="1">
          <mxGeometry width="50" height="50" relative="1" as="geometry">
            <mxPoint x="50" y="590" as="sourcePoint" />
            <mxPoint x="100" y="590" as="targetPoint" />
            <Array as="points" />
          </mxGeometry>
        </mxCell>
        <mxCell id="AS0PMVbMDKIyWdXyoXrK-30" value="" style="shape=flexArrow;endArrow=classic;html=1;rounded=0;endWidth=12.592592592592592;endSize=6.322222222222222;width=8.148148148148147;fillColor=#009900;" edge="1" parent="1">
          <mxGeometry width="50" height="50" relative="1" as="geometry">
            <mxPoint x="50" y="620" as="sourcePoint" />
            <mxPoint x="100" y="620" as="targetPoint" />
            <Array as="points" />
          </mxGeometry>
        </mxCell>
        <mxCell id="AS0PMVbMDKIyWdXyoXrK-31" value="" style="shape=flexArrow;endArrow=classic;html=1;rounded=0;endWidth=12.592592592592592;endSize=6.322222222222222;width=8.148148148148147;fillColor=#FF9933;" edge="1" parent="1">
          <mxGeometry width="50" height="50" relative="1" as="geometry">
            <mxPoint x="50" y="650" as="sourcePoint" />
            <mxPoint x="100" y="650" as="targetPoint" />
            <Array as="points" />
          </mxGeometry>
        </mxCell>
        <mxCell id="AS0PMVbMDKIyWdXyoXrK-32" value="" style="shape=flexArrow;endArrow=classic;html=1;rounded=0;endWidth=12.592592592592592;endSize=6.322222222222222;width=8.148148148148147;fillColor=#FF0000;" edge="1" parent="1">
          <mxGeometry width="50" height="50" relative="1" as="geometry">
            <mxPoint x="50" y="680" as="sourcePoint" />
            <mxPoint x="100" y="680" as="targetPoint" />
            <Array as="points" />
          </mxGeometry>
        </mxCell>
        <mxCell id="AS0PMVbMDKIyWdXyoXrK-33" value="&lt;font style=&quot;font-size: 8px;&quot;&gt;Test call from Supervision component&lt;/font&gt;" style="text;html=1;strokeColor=none;fillColor=none;align=center;verticalAlign=middle;whiteSpace=wrap;rounded=0;" vertex="1" parent="1">
          <mxGeometry x="110" y="570" width="150" height="30" as="geometry" />
        </mxCell>
        <mxCell id="AS0PMVbMDKIyWdXyoXrK-34" value="&lt;font style=&quot;font-size: 8px;&quot;&gt;Status OK response from API&lt;/font&gt;" style="text;html=1;strokeColor=none;fillColor=none;align=center;verticalAlign=middle;whiteSpace=wrap;rounded=0;" vertex="1" parent="1">
          <mxGeometry x="110" y="600" width="150" height="30" as="geometry" />
        </mxCell>
        <mxCell id="AS0PMVbMDKIyWdXyoXrK-35" value="&lt;font style=&quot;font-size: 8px;&quot;&gt;Status KO response from API&lt;/font&gt;" style="text;html=1;strokeColor=none;fillColor=none;align=center;verticalAlign=middle;whiteSpace=wrap;rounded=0;" vertex="1" parent="1">
          <mxGeometry x="110" y="630" width="150" height="30" as="geometry" />
        </mxCell>
        <mxCell id="AS0PMVbMDKIyWdXyoXrK-36" value="&lt;font style=&quot;font-size: 8px;&quot;&gt;EmailNotification and Email Status call to&amp;nbsp; consumers&lt;/font&gt;" style="text;html=1;strokeColor=none;fillColor=none;align=center;verticalAlign=middle;whiteSpace=wrap;rounded=0;" vertex="1" parent="1">
          <mxGeometry x="110" y="660" width="210" height="30" as="geometry" />
        </mxCell>
      </root>
    </mxGraphModel>
  </diagram>
</mxfile>
